Coordinates
version=1
nRows=13
nColumns=34
inDegrees=yes

Units are S.I. units (second, meters, Newtons, ...)
If the header above contains a line with 'inDegrees', this indicates whether rotational values are in degrees (yes) or radians (no).

endheader
time	pelvis_tilt	pelvis_list	pelvis_rotation	pelvis_tx	pelvis_ty	pelvis_tz	hip_flexion_r	hip_adduction_r	hip_rotation_r	knee_angle_r	ankle_angle_r	subtalar_angle_r	mtp_angle_r	hip_flexion_l	hip_adduction_l	hip_rotation_l	knee_angle_l	ankle_angle_l	subtalar_angle_l	mtp_angle_l	lumbar_extension	lumbar_bending	lumbar_rotation	arm_flex_r	arm_add_r	arm_rot_r	elbow_flex_r	pro_sup_r	arm_flex_l	arm_add_l	arm_rot_l	elbow_flex_l	pro_sup_l
      3.05000000	     -1.28403265	     -1.04259661	      0.35798840	     -0.98425187	      0.93015143	     -0.20183774	      0.32127626	      4.94640547	     -2.83094109	    -10.60645709	      9.72560733	      1.43745392	      1.78647768	     24.00137994	      0.50229316	      0.38211913	    -43.47974333	      1.85727421	     -8.19769831	     18.70780049	     -6.75038793	      4.16539901	      0.60912446	     -2.02508530	    -20.99384485	     10.88012529	     32.77121300	     90.00000000	     -5.47202904	    -14.08906098	     14.11193050	     22.29300592	     90.00000000
      3.06000000	     -1.11599126	     -1.00347484	      0.46389672	     -0.97305985	      0.92960748	     -0.20189057	     -0.98544542	      4.97883064	     -2.71871384	     -9.94001338	     10.00156274	      1.08670559	      1.89038408	     24.21811610	      0.53456253	      0.36882104	    -40.31664568	      1.57419317	     -9.37703716	     18.40685678	     -6.97999245	      4.10458486	      0.78844099	     -1.66084065	    -21.16650255	     10.90514212	     33.31444984	     90.00000000	     -5.49702082	    -14.05264171	     13.90743461	     21.84597365	     90.00000000
      3.07000000	     -0.91366690	     -0.89467436	      0.43798933	     -0.96162876	      0.92886512	     -0.20178388	     -2.29938839	      4.91657007	     -2.57807603	     -9.35117712	     10.38889721	      1.09841526	      2.01485650	     24.25438400	      0.57275035	      0.19480792	    -36.95915365	      1.14491901	    -10.47194168	     18.00349143	     -7.24074945	      3.94337789	      1.04513855	     -1.38854443	    -21.32039946	     10.81403548	     34.05320746	     90.00000000	     -5.60972480	    -14.10651342	     13.77209049	     21.66576767	     90.00000000
      3.08000000	     -0.68100194	     -0.82196213	      0.42004865	     -0.95005326	      0.92801864	     -0.20175215	     -3.66507335	      4.88142940	     -2.46017679	     -8.77092399	     10.71494119	      1.06838068	      2.08395870	     24.15547800	      0.57234699	      0.00124685	    -33.46024062	      0.82980187	    -11.51206632	     17.53543067	     -7.51799466	      3.83680377	      1.31048734	     -1.16165571	    -21.50379068	     10.71592611	     34.82415355	     90.00000000	     -5.69311387	    -14.06578506	     13.48206354	     21.40749965	     90.00000000
      3.09000000	     -0.46901732	     -0.79043555	      0.47298494	     -0.93824453	      0.92699374	     -0.20204456	     -5.02514453	      4.89117177	     -2.29557599	     -8.21793247	     11.14046405	      0.86343268	      2.18137489	     24.00918784	      0.57803736	     -0.14320654	    -29.92040018	      0.65461552	    -12.19975411	     17.08598800	     -7.74850714	      3.80619858	      1.48163005	     -0.95253440	    -21.64152216	     10.56924466	     35.51688911	     90.00000000	     -5.77993367	    -13.97144336	     13.13301031	     21.12152030	     90.00000000
      3.10000000	     -0.55327118	     -0.95995915	      0.59709233	     -0.92662498	      0.92531031	     -0.20217848	     -6.00041691	      5.13099708	     -2.19420203	     -7.74852818	     11.41999827	      0.88145391	      2.23980126	     24.25942168	      0.38148662	     -0.12949340	    -26.60907890	      0.81573419	    -12.23715863	     16.90405407	     -7.64142834	      3.95077926	      1.54958798	     -0.72127713	    -21.79564766	     10.43615159	     36.04351127	     90.00000000	     -5.99838096	    -14.00806072	     13.03864994	     21.10694065	     90.00000000
      3.11000000	      0.10206545	     -0.85105305	      0.64502352	     -0.91463547	      0.92471149	     -0.20245627	     -7.85886100	      5.06355595	     -2.07427866	     -7.17718390	     11.77278165	      0.58341933	      2.43354838	     23.42495278	      0.46948657	     -0.33350461	    -22.93677146	      0.72935995	    -12.45669984	     16.17611006	     -8.40900993	      3.81292522	      1.76204031	     -0.62771824	    -21.96041052	     10.10120097	     37.00486551	     90.00000000	     -5.84432516	    -13.96460135	     12.93078182	     20.56331115	     90.00000000
      3.12000000	      0.20536709	     -0.87700636	      0.82736045	     -0.90251340	      0.92317219	     -0.20288206	     -9.06624771	      5.17827206	     -2.03198417	     -6.72847868	     12.03589426	      0.10532757	      2.57697133	     23.24345746	      0.46773204	     -0.35255601	    -19.55738443	      0.77053001	    -11.77454835	     15.77656030	     -8.45892984	      3.81472223	      1.77686333	     -0.56849476	    -22.03645451	      9.80135189	     37.63075553	     90.00000000	     -5.88208759	    -13.93802683	     12.88237158	     20.19426096	     90.00000000
      3.13000000	      0.33008014	     -0.99703239	      0.91677667	     -0.89049873	      0.92155588	     -0.20331201	    -10.24010204	      5.40062798	     -1.58057198	     -6.35092203	     11.80701290	     -0.88906010	      4.23155024	     23.06084092	      0.34786536	     -0.46774184	    -16.48396325	      1.37929153	    -10.45098434	     12.46608851	     -8.57894623	      3.94160796	      2.02240433	     -0.70361654	    -22.11775719	      8.92953843	     38.49698203	     90.00000000	     -5.71060253	    -13.90431831	     13.62124927	     19.62658254	     90.00000000
      3.14000000	      0.22130867	     -1.08678122	      1.14582713	     -0.87839529	      0.91947731	     -0.20408267	    -11.02231950	      5.57339748	     -1.63946904	     -6.28225812	     12.18052343	     -1.24398451	      4.30650912	     23.08235919	      0.36026012	     -0.40507951	    -13.47299061	      1.28846126	     -9.32590709	     12.43168356	     -8.38667751	      4.01370247	      1.95234566	     -0.63162739	    -22.25420819	      8.90183061	     38.91323316	     90.00000000	     -5.76568789	    -13.85647971	     13.43693120	     19.35332403	     90.00000000
      3.15000000	     -0.01373478	     -1.24389665	      1.31762539	     -0.86604011	      0.91732140	     -0.20500580	    -11.61939598	      5.78455408	     -1.53446900	     -6.34194777	     12.46140652	     -1.45479602	      4.38322044	     23.18876128	      0.33477385	     -0.31337412	    -10.70128229	      1.31856234	     -8.30930064	     12.45140417	     -8.00738412	      4.17531502	      1.88309892	     -0.60681509	    -22.36932913	      8.81784971	     39.22080532	     90.00000000	     -5.90760685	    -13.78360501	     13.38251445	     19.16800613	     90.00000000
      3.16000000	      0.14248336	     -1.32660347	      1.37292795	     -0.85375019	      0.91569063	     -0.20563782	    -12.61290897	      5.90897673	     -1.36879450	     -6.38630699	     12.40136242	     -2.10702647	      5.16190401	     22.98595695	      0.24159675	     -1.24289277	     -8.46410121	      1.76088809	     -5.34071565	     12.50021532	     -8.12620241	      4.24712202	      2.09306764	     -0.80123209	    -22.40533572	      8.14695914	     39.95885787	     90.00000000	     -5.57111674	    -13.66653888	     13.97925032	     18.21328950	     90.00000000
      3.17000000	      0.12429528	     -1.41253481	      1.54462989	     -0.84121091	      0.91387522	     -0.20679571	    -13.35720582	      5.98287235	     -1.52830334	     -6.61072025	     12.56726556	     -1.99571216	      5.57101234	     22.91362394	      0.29086395	     -1.79951376	     -6.51616900	      1.93293268	     -3.10811704	     12.62930343	     -7.99344469	      4.34368424	      2.03525427	     -0.86254277	    -22.50097948	      7.88975277	     40.33811972	     90.00000000	     -5.49319201	    -13.54490852	     14.17405914	     17.67683989	     90.00000000
